<svg width="138" height="35" viewBox="0 0 138 35" fill="none" xmlns="http://www.w3.org/2000/svg">
<path fill-rule="evenodd" clip-rule="evenodd" d="M84.4096 4.52253C80.6446 1.53135 75.0361 0 67.5712 0C60.1063 0 54.6376 1.44682 50.7003 4.43799C46.7598 7.39666 44.7505 11.9712 44.7505 17.5959C44.7505 22.7915 46.3144 27.2782 49.9785 30.3214C53.659 33.3809 59.3 35 67.0738 35H67.09C74.6232 35 80.3682 33.4166 84.221 30.3572C88.0738 27.2782 89.914 22.6874 89.914 17.2188C89.914 11.7501 88.1583 7.5007 84.4096 4.52578V4.52253ZM75.0719 25.9192C73.3162 27.7399 70.8387 28.6015 67.4867 28.621C64.3232 28.621 61.7774 27.7431 59.9372 25.9549C58.1002 24.1667 56.9265 21.7575 56.9265 17.8365C56.9265 13.5513 58.045 10.9373 59.8332 9.06456C61.6409 7.20483 64.0988 6.34649 67.2461 6.34649C70.3933 6.34649 72.9033 7.15281 74.7793 8.94426C76.652 10.7325 77.8908 13.2067 77.8908 17.3716C77.8908 21.5365 76.8406 24.0952 75.0719 25.9192Z" fill="#8C150D"/>
<path fill-rule="evenodd" clip-rule="evenodd" d="M135.92 33.6573H135.936C137.035 33.6573 137.464 33.6736 137.464 31.9212V16.5621C137.464 11.5584 136.398 6.96761 132.925 4.11299C129.453 1.25837 123.588 0.0358887 116.399 0.0358887C109.211 0.0358887 103.466 1.19009 99.8209 4.06097C96.173 6.93185 94.918 11.2658 94.918 16.5621V31.9212C94.918 33.6736 95.4512 33.6573 96.5859 33.6573H96.95C97.0183 33.6573 97.0866 33.6573 97.1548 33.6736H104.857C104.961 33.6573 105.049 33.6573 105.153 33.6573H105.429C106.528 33.6573 106.957 33.6736 106.957 31.9212V18.5584C106.941 14.2245 107.266 10.9732 108.798 9.11671C110.345 7.27648 113.028 6.69125 116.09 6.675C119.033 6.69125 121.715 7.26023 123.363 8.89562C125.753 11.3178 125.428 18.3178 125.428 18.3178V32.061C125.428 33.7094 125.873 33.6931 126.976 33.6769C127.132 33.6606 127.288 33.6606 127.46 33.6606H135.37V33.6769C135.578 33.6606 135.767 33.6606 135.923 33.6606" fill="#8C150D"/>
<path fill-rule="evenodd" clip-rule="evenodd" d="M37.0288 16.7668C35.7901 16.0125 34.431 15.5118 33.1565 15.2192C35.7706 14.0487 38.2643 11.8996 38.2318 8.39147C38.2675 6.01803 36.7362 3.47554 33.2638 2.06448C29.7687 0.637171 24.1115 0.136475 15.9052 0.136475C1.09893 0.136475 0 0.604658 0 2.9911V30.835C0 34.4667 1.21923 34.4667 16.1816 34.4667C22.9248 34.4667 28.9104 34.4309 33.4004 32.7793C37.8871 31.1634 40.81 27.8439 40.7613 22.9962C40.7775 19.9855 39.1129 18.025 37.0288 16.7668ZM12.5889 12.6409V6.79509C12.5889 6.48622 12.5889 5.96927 13.4668 5.96927H18.1454C19.5239 5.96927 22.7557 5.96927 24.0269 6.38543C25.6948 6.91864 26.5564 8.31019 26.5564 9.36035C26.5564 10.4105 26.2638 11.6102 25.2169 12.4198C24.1667 13.2456 22.7752 13.4505 19.8165 13.4505H13.47C12.5922 13.4505 12.5922 12.9693 12.5922 12.6767V12.6409H12.5889ZM25.8834 27.2261C24.2155 28.0519 21.9266 28.0324 19.1923 28.0324H13.1904C12.9141 28.0324 12.5889 27.8081 12.5889 27.3627V19.8977C12.5727 19.5889 12.5727 19.0557 13.4668 19.0557H18.7306C21.7055 19.0557 23.7181 19.1239 25.4575 19.7092C27.1937 20.3302 28.3641 21.79 28.3641 23.0807C28.3641 25.3144 27.6261 26.3483 25.8867 27.2229L25.8834 27.2261Z" fill="#8C150D"/>
</svg>
