<svg width="70" height="46" viewBox="0 0 70 46" fill="none" xmlns="http://www.w3.org/2000/svg">
<path d="M12.239 0C21.0762 0 33.0342 3.87811 43.3249 10.6816C45.8106 12.3245 45.1021 13.1734 42.0607 12.0069C38.6162 10.6938 25.7849 5.32553 12.0374 5.32553C6.2233 5.32553 5.70418 7.21268 6.30269 8.64788C8.59292 14.1444 21.5342 20.6853 33.2113 20.6792C43.5265 20.6792 55.1547 16.3064 66.1722 4.33616C67.0455 3.38342 68.3036 2.92538 68.9266 3.55443C69.6228 4.25065 69.012 5.47211 68.6151 6.07673C65.3477 11.0847 50.5009 28.6614 29.5225 28.6614C8.11655 28.6553 0 12.2451 0 6.42484C0 1.2581 7.75622 0 12.239 0Z" fill="url(#paint0_linear_409_599)"/>
<path d="M35.1962 35.8066C33.9381 34.8111 32.0509 34.292 29.547 34.292C27.1285 34.292 25.2047 34.7806 23.8855 35.7761C22.5664 36.7715 21.8885 38.2984 21.8946 40.1794C21.8946 41.9139 22.4198 43.4162 23.6474 44.4362C24.881 45.4561 26.7682 45.9996 29.3821 45.9996H29.3882C31.9105 45.9996 33.8404 45.4683 35.1351 44.4423C36.4299 43.4101 37.0406 41.8772 37.0406 40.045C37.0406 38.2129 36.4543 36.8021 35.1962 35.8005V35.8066ZM32.0632 42.9643C31.4708 43.5689 30.6463 43.8621 29.5164 43.8682C28.4599 43.8682 27.5988 43.575 26.9819 42.9765C26.3651 42.378 25.9742 41.5718 25.9742 40.2588C25.9742 38.8297 26.3468 37.9502 26.9514 37.3273C27.5499 36.7044 28.3744 36.4173 29.437 36.4173C30.4753 36.4173 31.3364 36.6921 31.9654 37.2845C32.5945 37.8831 33.0098 38.7075 33.0098 40.1C33.0098 41.4925 32.6556 42.3475 32.0693 42.9582L32.0632 42.9643Z" fill="#710000"/>
<path d="M52.2969 45.5535C52.8038 45.5352 52.9992 45.6451 52.9992 44.9672V39.8371C52.9992 38.1637 52.6389 36.6308 51.4785 35.6781C50.312 34.7192 48.3455 34.3101 45.9392 34.3101C43.5941 34.3101 41.597 34.6948 40.3755 35.6537C39.1541 36.6125 38.7266 38.066 38.7266 39.831V44.9611C38.7266 45.639 38.9709 45.5352 39.4839 45.5474H42.0672C42.5802 45.5291 42.7696 45.639 42.7696 44.9611V40.4967C42.7696 39.0493 42.8734 37.9622 43.3864 37.3393C43.9055 36.7224 44.8094 36.527 45.8293 36.5209C46.8187 36.5209 47.7165 36.7163 48.2661 37.2721C49.0723 38.0782 48.9623 40.4173 48.9623 40.4173V45.01C48.9623 45.639 49.1578 45.5474 49.6463 45.5474H52.2969V45.5535Z" fill="#710000"/>
<path d="M19.2991 39.905C18.8838 39.6485 18.4258 39.4836 17.9983 39.3798C18.8716 38.9889 19.7083 38.2744 19.7022 37.1018C19.7144 36.3078 19.2014 35.4528 18.0288 34.9826C16.8623 34.5062 14.963 34.3413 12.2147 34.3413C7.24339 34.3413 6.87695 34.494 6.87695 35.294V44.6015C6.87695 45.8169 7.29225 45.8169 12.3124 45.8169C14.5721 45.8169 16.5814 45.7985 18.0899 45.2489C19.5923 44.7114 20.5694 43.5999 20.5633 41.9754C20.5633 40.9738 20.0076 40.3142 19.3052 39.8989L19.2991 39.905ZM12.8621 36.2956C13.2468 36.2956 14.4744 36.2834 14.9324 36.43C15.4943 36.6071 15.7752 37.0713 15.7752 37.4316C15.7752 37.7919 15.6775 38.1767 15.3294 38.4576C14.9752 38.7324 14.511 38.8057 13.5155 38.8057H11.3902C11.0787 38.8057 11.0971 38.6347 11.0971 38.5309V36.5888C11.0971 36.4911 11.0787 36.3017 11.3902 36.3017H12.8621V36.2956ZM15.5615 43.4045C14.9752 43.6915 14.1507 43.6732 13.1674 43.6732H11.2986C11.207 43.6732 11.1032 43.5938 11.1032 43.4472V40.9677C11.1032 40.8639 11.0849 40.6745 11.3963 40.6745C11.9338 40.6745 12.917 40.6745 13.1613 40.6745C14.1568 40.6745 14.8347 40.6929 15.4149 40.8944C15.9951 41.0959 16.3921 41.5845 16.3921 42.0181C16.3921 42.7693 16.1478 43.1113 15.5615 43.4045Z" fill="#710000"/>
<defs>
<linearGradient id="paint0_linear_409_599" x1="69.5251" y1="5.84465" x2="1.87493" y2="17.7721" gradientUnits="userSpaceOnUse">
<stop stop-color="#A2C02F"/>
<stop offset="1" stop-color="#519032"/>
</linearGradient>
</defs>
</svg>
